<svg width="500" height="300" viewBox="0 0 500 300" fill="none" xmlns="http://www.w3.org/2000/svg">
<g clip-path="url(#clip0)">
<rect width="500" height="300" fill="#062DB9"/>
<rect x="200" width="100" height="300" fill="white"/>
<rect x="507.14" y="336.183" width="624.855" height="69" transform="rotate(-150 507.14 336.183)" fill="#FFFEFE"/>
<rect x="-34" y="276.427" width="624.855" height="69" transform="rotate(-30 -34 276.427)" fill="white"/>
<rect x="222" width="55" height="312" fill="#FF0000"/>
<rect x="298.327" y="101.064" width="250.128" height="27.6195" transform="rotate(-30 298.327 101.064)" fill="#FF0606"/>
<rect x="-8" y="294.922" width="278.192" height="27.6195" transform="rotate(-30 -8 294.922)" fill="#FF0606"/>
<rect x="153.318" y="118.067" width="216.296" height="27.6195" transform="rotate(-150 153.318 118.067)" fill="#FF0606"/>
<rect x="509.934" y="303.208" width="258.577" height="27.6195" transform="rotate(-150 509.934 303.208)" fill="#FF0606"/>
<rect y="100" width="500" height="100" fill="#FFFEFE"/>
<rect y="124" width="500" height="57" fill="#FF0909"/>
</g>
<defs>
<clipPath id="clip0">
<rect width="500" height="300" fill="white"/>
</clipPath>
</defs>
</svg>
