<svg width="300" height="300" viewBox="0 0 300 300" fill="none" xmlns="http://www.w3.org/2000/svg">
<path d="M49 154.5L100 106.5L64.5 154.5H86.5L120 106.5L100 154.5H120L144 106.5L133.5 154.5L144 201.5L120 154.5H100L120 201.5L86.5 154.5H64.5L100 201.5L49 154.5Z" fill="black"/>
<path d="M286.5 154.5H133.5M49 154.5L100 106.5L64.5 154.5M49 154.5L100 201.5L64.5 154.5M49 154.5H64.5M64.5 154.5H86.5M86.5 154.5L120 106.5L100 154.5M86.5 154.5L120 201.5L100 154.5M86.5 154.5H100M100 154.5H120M120 154.5L144 106.5L133.5 154.5M120 154.5L144 201.5L133.5 154.5M120 154.5H133.5" stroke="black" stroke-width="10"/>
<rect x="62" y="142" width="225" height="21" fill="black"/>
</svg>
