<svg width="100" height="100" viewBox="0 0 100 100" fill="none" xmlns="http://www.w3.org/2000/svg">
<g clip-path="url(#clip0)">
<rect width="100" height="100" fill="white"/>
<path d="M69 75C58.1667 82.1667 32.2 90 15 64L36 25L57 21L78 30L88 51.5L69 75Z" fill="#ECDED5" stroke="#A38570"/>
<path d="M70.9402 52.5967L72.0568 47.2774L64.3843 46.9213C64.3843 46.9213 62.6853 49.4176 63.9764 52.6708C65.2675 55.9239 70.9402 52.5967 70.9402 52.5967Z" fill="#A8ACFF"/>
<path d="M60 46.7178L64.3843 46.9213M76.9891 47.5063L72.0568 47.2774M72.0568 47.2774L70.9402 52.5967C70.9402 52.5967 65.2675 55.9239 63.9764 52.6708C62.6853 49.4176 64.3843 46.9213 64.3843 46.9213M72.0568 47.2774L64.3843 46.9213" stroke="#4E3430"/>
<path d="M45.7038 46.3909L49.8745 42.9058L44.0708 37.8748C44.0708 37.8748 41.1909 38.7828 40.1901 42.1366C39.1892 45.4905 45.7038 46.3909 45.7038 46.3909Z" fill="#A8ACFF"/>
<path d="M40.7544 35L44.0708 37.8748M53.6055 46.14L49.8745 42.9058M49.8745 42.9058L45.7038 46.3909C45.7038 46.3909 39.1892 45.4905 40.1901 42.1366C41.1909 38.7828 44.0708 37.8748 44.0708 37.8748M49.8745 42.9058L44.0708 37.8748" stroke="#4E3430"/>
<path d="M58 65.5C46.8362 64.2199 38.9335 54.257 37 56C35.0665 57.743 36.2827 67.5437 37 67.5C37.7173 67.4562 45 71 48.5 72.5C52 74 58 65.5 58 65.5Z" fill="#FF7676" stroke="#4E3430"/>
<path d="M51.5 36.5C50.6847 35.6847 51.1157 32.9583 51.8447 30.3532C50.9008 31 49.7644 31 48.5 31C46 31 43 22.5 42.5 26C42 29.5 36.5 37.5 34 38C31.5 38.5 26.5 47.8333 22.5 49.5C22.5 49.5 25.5 33 29 32.5C32.5 32 33.5 18.3336 36.5 19C39.5 19.6664 45.5 20.5 46 19C46.5 17.5 50.7623 17.9473 51.5 19C52.2377 20.0527 65.5 20.5 67 17.5C68.5 14.5 74.5 24.5 78.5 22.5C82.5 20.5 88 29.5 90.5 31C93 32.5 89 40.5 92 40.5C95 40.5 90.5 49.5 90.5 49.5C90.5 49.5 84.5 62 86.5 66.5C88.5 71 80 76 80 72.5C80 69 73.5 65 78.5 59C83.5 53 90.1218 50.177 85.5 48.5C81.3886 47.0082 83.7325 45.3657 82.1642 41.8847C81.7313 43.5853 80.9236 46.4911 80 48.5C78.6207 51.5 73.5 40.5 73.5 36.5C73.5 32.5 64.5 40.5 61 40.5C57.5 40.5 65 32.5 62.5 31C62.5 31 53.5 38.5 51.5 36.5Z" fill="#0B7AB8"/>
<path d="M68.5 26L62.5 31M62.5 31C62.5 31 53.5 38.5 51.5 36.5C49.5 34.5 55 21 54 26C53 31 51 31 48.5 31C46 31 43 22.5 42.5 26C42 29.5 36.5 37.5 34 38C31.5 38.5 26.5 47.8333 22.5 49.5C22.5 49.5 25.5 33 29 32.5C32.5 32 33.5 18.3336 36.5 19C39.5 19.6664 45.5 20.5 46 19C46.5 17.5 50.7623 17.9473 51.5 19C52.2377 20.0527 65.5 20.5 67 17.5C68.5 14.5 74.5 24.5 78.5 22.5C82.5 20.5 88 29.5 90.5 31C93 32.5 89 40.5 92 40.5C95 40.5 90.5 49.5 90.5 49.5C90.5 49.5 84.5 62 86.5 66.5C88.5 71 80 76 80 72.5C80 69 73.5 65 78.5 59C83.5 53 90.1218 50.177 85.5 48.5C80.8782 46.823 84.414 44.9556 81.3793 40.5H82.5C82.5 40.5 81.3793 45.5 80 48.5C78.6207 51.5 73.5 40.5 73.5 36.5C73.5 32.5 64.5 40.5 61 40.5C57.5 40.5 65 32.5 62.5 31Z" stroke="#00A3FF"/>
<path d="M54.5 51.5C49.5 53 50.3333 56.3333 49.5 58M142 102.5L137 99.5H144.5L117 32" stroke="#4E3430"/>
</g>
<defs>
<clipPath id="clip0">
<rect width="100" height="100" fill="white"/>
</clipPath>
</defs>
</svg>
